<?xml version="1.0" encoding="UTF-8" standalone="no"?>
<!-- Generator: Adobe Illustrator 19.0.0, SVG Export Plug-In . SVG Version: 6.00 Build 0)  -->

<svg
   xmlns:dc="http://purl.org/dc/elements/1.1/"
   xmlns:cc="http://creativecommons.org/ns#"
   xmlns:rdf="http://www.w3.org/1999/02/22-rdf-syntax-ns#"
   xmlns:svg="http://www.w3.org/2000/svg"
   xmlns="http://www.w3.org/2000/svg"
   xmlns:sodipodi="http://sodipodi.sourceforge.net/DTD/sodipodi-0.dtd"
   xmlns:inkscape="http://www.inkscape.org/namespaces/inkscape"
   version="1.1"
   id="Capa_1"
   x="0px"
   y="0px"
   viewBox="0 0 1319.4922 408.30265"
   xml:space="preserve"
   sodipodi:docname="FikesMedia.svg"
   inkscape:version="0.92.4 (5da689c313, 2019-01-14)"
   width="1319.4921"
   height="408.30264"><metadata
   id="metadata3797"><rdf:RDF><cc:Work
       rdf:about=""><dc:format>image/svg+xml</dc:format><dc:type
         rdf:resource="http://purl.org/dc/dcmitype/StillImage" /><dc:title></dc:title></cc:Work></rdf:RDF></metadata><defs
   id="defs3795" /><sodipodi:namedview
   pagecolor="#ffffff"
   bordercolor="#666666"
   borderopacity="1"
   objecttolerance="10"
   gridtolerance="10"
   guidetolerance="10"
   inkscape:pageopacity="0"
   inkscape:pageshadow="2"
   inkscape:window-width="2560"
   inkscape:window-height="1017"
   id="namedview3793"
   showgrid="false"
   inkscape:zoom="0.58557853"
   inkscape:cx="174.25066"
   inkscape:cy="613.02693"
   inkscape:window-x="-8"
   inkscape:window-y="-8"
   inkscape:window-maximized="1"
   inkscape:current-layer="Capa_1"
   fit-margin-top="0.5"
   fit-margin-left="0.5"
   fit-margin-right="0.5"
   fit-margin-bottom="0.5" />

<g
   id="g3762"
   transform="translate(316.04697,-62.202699)"
   style="fill:#000000">
</g>
<g
   id="g3764"
   transform="translate(316.04697,-62.202699)"
   style="fill:#000000">
</g>
<g
   id="g3766"
   transform="translate(316.04697,-62.202699)"
   style="fill:#000000">
</g>
<g
   id="g3768"
   transform="translate(316.04697,-62.202699)"
   style="fill:#000000">
</g>
<g
   id="g3770"
   transform="translate(316.04697,-62.202699)"
   style="fill:#000000">
</g>
<g
   id="g3772"
   transform="translate(316.04697,-62.202699)"
   style="fill:#000000">
</g>
<g
   id="g3774"
   transform="translate(316.04697,-62.202699)"
   style="fill:#000000">
</g>
<g
   id="g3776"
   transform="translate(316.04697,-62.202699)"
   style="fill:#000000">
</g>
<g
   id="g3778"
   transform="translate(316.04697,-62.202699)"
   style="fill:#000000">
</g>
<g
   id="g3780"
   transform="translate(316.04697,-62.202699)"
   style="fill:#000000">
</g>
<g
   id="g3782"
   transform="translate(316.04697,-62.202699)"
   style="fill:#000000">
</g>
<g
   id="g3784"
   transform="translate(316.04697,-62.202699)"
   style="fill:#000000">
</g>
<g
   id="g3786"
   transform="translate(316.04697,-62.202699)"
   style="fill:#000000">
</g>
<g
   id="g3788"
   transform="translate(316.04697,-62.202699)"
   style="fill:#000000">
</g>
<g
   id="g3790"
   transform="translate(316.04697,-62.202699)"
   style="fill:#000000">
</g>
<g
   aria-label="FikesMedia"
   transform="matrix(2.3588326,0,0,2.3588326,48.660871,-302.0212)"
   style="font-style:normal;font-variant:normal;font-weight:normal;font-stretch:normal;font-size:96px;line-height:1.25;font-family:Planer;-inkscape-font-specification:'Planer, Normal';font-variant-ligatures:normal;font-variant-caps:normal;font-variant-numeric:normal;font-feature-settings:normal;text-align:start;letter-spacing:0px;word-spacing:0px;writing-mode:lr-tb;text-anchor:start;fill:#000000;fill-opacity:1;stroke:none"
   id="flowRoot3799"><path
     d="m 40.2675,209.9315 v 29.472 q 0,1.248 -0.768,2.016 -0.768,0.768 -1.824,0.768 -1.152,0 -1.92,-0.768 -0.768,-0.768 -0.768,-1.824 v -60.288 q 0,-1.92 1.248,-3.072 1.248,-1.248 3.072,-1.248 h 32.928 q 1.344,0 2.016,0.768 0.768,0.768 0.768,1.824 0,1.152 -0.768,1.92 -0.672,0.672 -1.824,0.672 h -32.16 v 24.48 h 26.4 q 1.248,0 2.016,0.768 0.768,0.768 0.768,1.824 0,1.152 -0.768,1.92 -0.768,0.768 -1.824,0.768 z"
     style="fill:#000000"
     id="path56" /><path
     d="m 84.675,196.7795 q 0,-1.056 0.672,-1.824 0.672,-0.768 1.824,-0.768 1.056,0 1.824,0.768 0.768,0.768 0.768,1.824 v 42.912 q 0,1.056 -0.768,1.824 -0.768,0.672 -1.824,0.672 -1.152,0 -1.824,-0.672 -0.672,-0.768 -0.672,-1.824 z m 0,-18.432 q 0,-1.152 0.672,-1.824 0.672,-0.768 1.824,-0.768 1.056,0 1.824,0.768 0.768,0.672 0.768,1.824 v 1.824 q 0,1.056 -0.768,1.824 -0.768,0.672 -1.824,0.672 -1.152,0 -1.824,-0.672 -0.672,-0.768 -0.672,-1.824 z"
     style="fill:#000000"
     id="path58" /><path
     d="m 133.092,237.9635 q 0.48,0.576 0.48,1.632 0,1.056 -0.768,1.824 -0.672,0.768 -1.728,0.768 -1.248,0 -2.112,-1.056 l -16.32,-22.272 q -0.192,-0.096 -0.384,-0.192 -0.192,-0.192 -0.288,-0.192 h -7.488 v 20.928 q 0,1.248 -0.768,2.016 -0.768,0.768 -1.824,0.768 -1.152,0 -1.92,-0.768 -0.672,-0.768 -0.672,-1.824 v -61.248 q 0,-1.152 0.672,-1.824 0.768,-0.768 1.92,-0.768 1.056,0 1.824,0.768 0.768,0.672 0.768,1.824 v 35.136 h 7.392 q 0.288,0 0.48,-0.192 l 14.976,-18.048 q 0.864,-1.056 2.016,-1.056 1.152,0 1.824,0.768 0.768,0.768 0.768,1.824 0,0.96 -0.48,1.44 l -14.784,17.76 z"
     style="fill:#000000"
     id="path60" /><path
     d="m 143.5755,220.2995 q 0.096,4.224 0.672,7.392 0.672,3.168 2.112,5.376 1.44,2.112 3.84,3.264 2.4,1.056 6.048,1.056 h 14.688 q 1.152,0 1.824,0.672 0.672,0.672 0.672,1.728 0,1.056 -0.672,1.728 -0.672,0.672 -1.728,0.672 h -14.88 q -5.184,0 -8.64,-1.344 -3.36,-1.44 -5.376,-4.224 -2.016,-2.88 -2.88,-7.104 -0.768,-4.32 -0.768,-10.08 v -7.488 q 0,-4.416 1.344,-7.872 1.44,-3.552 3.84,-5.856 2.496,-2.4 5.76,-3.648 3.264,-1.248 7.104,-1.248 9.024,0 13.728,4.704 4.704,4.704 4.704,13.92 v 4.512 q 0,1.632 -1.152,2.784 -1.056,1.056 -2.784,1.056 z m 26.304,-4.8 v -3.552 q 0,-6.816 -3.36,-10.272 -3.264,-3.552 -9.984,-3.552 -6.144,0 -9.6,3.744 -3.36,3.744 -3.36,10.08 v 3.552 z"
     style="fill:#000000"
     id="path62" /><path
     d="m 186.0525,239.7875 q 0,-1.056 0.672,-1.728 0.672,-0.672 1.728,-0.672 h 13.536 q 5.856,0 9.312,-1.92 3.456,-2.016 3.456,-7.104 0,-3.456 -2.688,-5.568 -2.688,-2.112 -7.68,-2.784 l -4.128,-0.48 q -7.392,-0.768 -11.52,-3.552 -4.128,-2.784 -4.128,-9.312 0,-3.552 1.344,-6.048 1.344,-2.592 3.552,-4.128 2.208,-1.632 5.184,-2.304 2.976,-0.768 6.24,-0.768 h 14.688 q 1.152,0 1.824,0.672 0.768,0.672 0.768,1.728 0,1.056 -0.672,1.728 -0.672,0.672 -1.728,0.672 h -14.88 q -4.704,0 -7.872,1.92 -3.168,1.824 -3.168,6.336 0,4.032 2.784,5.76 2.784,1.632 8.928,2.4 l 3.648,0.48 q 6.912,0.96 10.848,4.032 3.936,3.072 3.936,9.12 0,4.032 -1.344,6.72 -1.344,2.592 -3.744,4.224 -2.304,1.632 -5.664,2.304 -3.264,0.672 -7.296,0.672 h -13.536 q -1.056,0 -1.728,-0.672 -0.672,-0.672 -0.672,-1.728 z"
     style="fill:#000000"
     id="path64" /><path
     d="m 229.6125,181.8995 q 0,-2.784 2.016,-4.8 2.112,-2.112 4.896,-2.112 2.304,0 4.128,1.344 1.824,1.248 2.496,3.456 l 15.744,53.088 q 4.224,-13.44 8.448,-26.688 4.224,-13.248 8.448,-26.592 0.672,-2.016 2.496,-3.264 1.92,-1.344 4.128,-1.344 2.784,0 4.8,2.112 2.112,2.016 2.112,4.8 v 57.696 q 0,1.056 -0.768,1.824 -0.768,0.768 -1.824,0.768 -1.152,0 -1.92,-0.768 -0.672,-0.768 -0.672,-1.824 v -57.696 q 0,-0.768 -0.48,-1.248 -0.48,-0.48 -1.248,-0.48 -1.248,0 -1.44,1.152 -4.704,14.592 -9.408,29.184 -4.704,14.592 -9.312,29.184 -0.384,1.056 -1.248,1.824 -0.768,0.672 -2.112,0.672 -1.344,0 -2.208,-0.672 -0.864,-0.768 -1.248,-1.824 l -17.376,-58.272 q -0.384,-1.248 -1.536,-1.248 -0.768,0 -1.248,0.48 -0.48,0.48 -0.48,1.248 v 57.696 q 0,1.056 -0.768,1.824 -0.672,0.768 -1.824,0.768 -1.056,0 -1.824,-0.768 -0.768,-0.768 -0.768,-1.824 z"
     style="fill:#000000"
     id="path66" /><path
     d="m 304.0755,220.2995 q 0.096,4.224 0.672,7.392 0.672,3.168 2.112,5.376 1.44,2.112 3.84,3.264 2.4,1.056 6.048,1.056 h 14.688 q 1.152,0 1.824,0.672 0.672,0.672 0.672,1.728 0,1.056 -0.672,1.728 -0.672,0.672 -1.728,0.672 h -14.88 q -5.184,0 -8.64,-1.344 -3.36,-1.44 -5.376,-4.224 -2.016,-2.88 -2.88,-7.104 -0.768,-4.32 -0.768,-10.08 v -7.488 q 0,-4.416 1.344,-7.872 1.44,-3.552 3.84,-5.856 2.496,-2.4 5.76,-3.648 3.264,-1.248 7.104,-1.248 9.024,0 13.728,4.704 4.704,4.704 4.704,13.92 v 4.512 q 0,1.632 -1.152,2.784 -1.056,1.056 -2.784,1.056 z m 26.304,-4.8 v -3.552 q 0,-6.816 -3.36,-10.272 -3.264,-3.552 -9.984,-3.552 -6.144,0 -9.6,3.744 -3.36,3.744 -3.36,10.08 v 3.552 z"
     style="fill:#000000"
     id="path68" /><path
     d="m 381.2085,238.1555 q 0,1.632 -1.248,2.88 -1.152,1.152 -2.784,1.152 h -16.8 q -4.224,0 -7.2,-1.824 -2.88,-1.824 -4.704,-4.512 -1.728,-2.784 -2.592,-5.952 -0.768,-3.168 -0.768,-5.76 v -14.784 q 0,-3.84 1.152,-6.816 1.248,-2.976 3.36,-4.992 2.112,-2.112 4.8,-3.168 2.688,-1.056 5.76,-1.056 h 15.936 v -14.976 q 0,-1.152 0.768,-1.824 0.768,-0.768 1.824,-0.768 0.96,0 1.728,0.768 0.768,0.672 0.768,1.824 z m -5.088,-40.032 h -15.936 q -2.016,0 -3.84,0.864 -1.824,0.768 -3.168,2.304 -1.344,1.44 -2.208,3.552 -0.768,2.016 -0.768,4.512 v 14.496 q 0,5.952 2.88,9.6 2.88,3.648 7.296,3.648 h 15.744 z"
     style="fill:#000000"
     id="path70" /><path
     d="m 390.8625,196.7795 q 0,-1.056 0.672,-1.824 0.672,-0.768 1.824,-0.768 1.056,0 1.824,0.768 0.768,0.768 0.768,1.824 v 42.912 q 0,1.056 -0.768,1.824 -0.768,0.672 -1.824,0.672 -1.152,0 -1.824,-0.672 -0.672,-0.768 -0.672,-1.824 z m 0,-18.432 q 0,-1.152 0.672,-1.824 0.672,-0.768 1.824,-0.768 1.056,0 1.824,0.768 0.768,0.672 0.768,1.824 v 1.824 q 0,1.056 -0.768,1.824 -0.768,0.672 -1.824,0.672 -1.152,0 -1.824,-0.672 -0.672,-0.768 -0.672,-1.824 z"
     style="fill:#000000"
     id="path72" /><path
     d="m 408.2715,195.7235 q 0,-1.056 0.672,-1.728 0.672,-0.672 1.728,-0.672 h 17.376 q 2.88,0 5.28,1.056 2.4,1.056 4.128,2.976 1.728,1.824 2.688,4.416 0.96,2.592 0.96,5.568 v 31.008 q 0,1.632 -1.152,2.784 -1.056,1.056 -2.688,1.056 h -17.952 q -2.88,0 -5.472,-1.056 -2.496,-1.056 -4.416,-2.88 -1.824,-1.92 -2.88,-4.416 -1.056,-2.496 -1.056,-5.376 0,-2.88 1.056,-5.376 1.056,-2.496 2.88,-4.32 1.92,-1.92 4.416,-2.976 2.592,-1.152 5.472,-1.152 h 16.704 v -7.008 q 0,-4.032 -2.112,-6.72 -2.112,-2.784 -5.856,-2.784 h -17.184 q -2.592,0 -2.592,-2.4 z m 27.744,41.472 v -17.664 h -16.704 q -1.824,0 -3.456,0.768 -1.632,0.672 -2.88,1.92 -1.152,1.152 -1.824,2.784 -0.672,1.632 -0.672,3.456 0,1.824 0.672,3.456 0.672,1.536 1.824,2.784 1.248,1.152 2.88,1.824 1.632,0.672 3.456,0.672 z"
     style="fill:#000000"
     id="path74" /></g><g
   id="g3850"
   transform="matrix(7.4987358,0,0,7.4987358,984.43823,40.605501)"
   style="fill:#000000" /><g
   id="g3852"
   transform="matrix(7.4987358,0,0,7.4987358,984.43823,40.605501)"
   style="fill:#000000" /><g
   id="g3854"
   transform="matrix(7.4987358,0,0,7.4987358,984.43823,40.605501)"
   style="fill:#000000" /><g
   id="g3856"
   transform="matrix(7.4987358,0,0,7.4987358,984.43823,40.605501)"
   style="fill:#000000" /><g
   id="g3858"
   transform="matrix(7.4987358,0,0,7.4987358,984.43823,40.605501)"
   style="fill:#000000" /><g
   id="g3860"
   transform="matrix(7.4987358,0,0,7.4987358,984.43823,40.605501)"
   style="fill:#000000" /><g
   id="g3862"
   transform="matrix(7.4987358,0,0,7.4987358,984.43823,40.605501)"
   style="fill:#000000" /><g
   id="g3864"
   transform="matrix(7.4987358,0,0,7.4987358,984.43823,40.605501)"
   style="fill:#000000" /><g
   id="g3866"
   transform="matrix(7.4987358,0,0,7.4987358,984.43823,40.605501)"
   style="fill:#000000" /><g
   id="g3868"
   transform="matrix(7.4987358,0,0,7.4987358,984.43823,40.605501)"
   style="fill:#000000" /><g
   id="g3870"
   transform="matrix(7.4987358,0,0,7.4987358,984.43823,40.605501)"
   style="fill:#000000" /><g
   id="g3872"
   transform="matrix(7.4987358,0,0,7.4987358,984.43823,40.605501)"
   style="fill:#000000" /><g
   id="g3874"
   transform="matrix(7.4987358,0,0,7.4987358,984.43823,40.605501)"
   style="fill:#000000" /><g
   id="g3876"
   transform="matrix(7.4987358,0,0,7.4987358,984.43823,40.605501)"
   style="fill:#000000" /><g
   id="g3878"
   transform="matrix(7.4987358,0,0,7.4987358,984.43823,40.605501)"
   style="fill:#000000" /><path
   style="color:#000000;font-style:normal;font-variant:normal;font-weight:normal;font-stretch:normal;font-size:medium;line-height:normal;font-family:sans-serif;font-variant-ligatures:normal;font-variant-position:normal;font-variant-caps:normal;font-variant-numeric:normal;font-variant-alternates:normal;font-feature-settings:normal;text-indent:0;text-align:start;text-decoration:none;text-decoration-line:none;text-decoration-style:solid;text-decoration-color:#000000;letter-spacing:normal;word-spacing:normal;text-transform:none;writing-mode:lr-tb;direction:ltr;text-orientation:mixed;dominant-baseline:auto;baseline-shift:baseline;text-anchor:start;white-space:normal;shape-padding:0;clip-rule:nonzero;display:inline;overflow:visible;visibility:visible;opacity:0.97000002;isolation:auto;mix-blend-mode:normal;color-interpolation:sRGB;color-interpolation-filters:linearRGB;solid-color:#000000;solid-opacity:1;vector-effect:none;fill:#000000;fill-opacity:1;fill-rule:nonzero;stroke:none;stroke-width:9;stroke-linecap:round;stroke-linejoin:miter;stroke-miterlimit:4;stroke-dasharray:none;stroke-dashoffset:0;stroke-opacity:1;paint-order:fill markers stroke;color-rendering:auto;image-rendering:auto;shape-rendering:auto;text-rendering:auto;enable-background:accumulate"
   d="m 1251.324,126.05572 c -28.2953,7.5817 -45.1551,36.78367 -37.5734,65.07892 7.5817,28.29526 36.7837,45.15503 65.0789,37.57334 28.2953,-7.58169 45.1551,-36.78369 37.5735,-65.07894 -7.5817,-28.29525 -36.7838,-45.155 -65.079,-37.57332 z m 2.3293,8.69334 c 23.5971,-6.32281 47.7335,7.61232 54.0563,31.20935 6.3228,23.59703 -7.6123,47.73342 -31.2094,54.05624 -23.597,6.3228 -47.7334,-7.61235 -54.0562,-31.20938 -6.3228,-23.59702 7.6123,-47.73341 31.2093,-54.05621 z"
   id="path1026"
   inkscape:connector-curvature="0" /><path
   style="color:#000000;font-style:normal;font-variant:normal;font-weight:normal;font-stretch:normal;font-size:medium;line-height:normal;font-family:sans-serif;font-variant-ligatures:normal;font-variant-position:normal;font-variant-caps:normal;font-variant-numeric:normal;font-variant-alternates:normal;font-feature-settings:normal;text-indent:0;text-align:start;text-decoration:none;text-decoration-line:none;text-decoration-style:solid;text-decoration-color:#000000;letter-spacing:normal;word-spacing:normal;text-transform:none;writing-mode:lr-tb;direction:ltr;text-orientation:mixed;dominant-baseline:auto;baseline-shift:baseline;text-anchor:start;white-space:normal;shape-padding:0;clip-rule:nonzero;display:inline;overflow:visible;visibility:visible;opacity:0.97000002;isolation:auto;mix-blend-mode:normal;color-interpolation:sRGB;color-interpolation-filters:linearRGB;solid-color:#000000;solid-opacity:1;vector-effect:none;fill:#000000;fill-opacity:1;fill-rule:nonzero;stroke:none;stroke-width:9;stroke-linecap:round;stroke-linejoin:miter;stroke-miterlimit:4;stroke-dasharray:none;stroke-dashoffset:0;stroke-opacity:1;paint-order:fill markers stroke;color-rendering:auto;image-rendering:auto;shape-rendering:auto;text-rendering:auto;enable-background:accumulate"
   d="m 1080.6368,44.110512 c -21.3213,5.713052 -34.0433,27.745465 -28.3303,49.066838 5.7131,21.32136 27.7474,34.04288 49.0687,28.32985 21.3215,-5.71304 34.043,-27.747347 28.3299,-49.06874 -5.713,-21.321412 -27.7468,-34.041055 -49.0683,-28.327948 z m 2.3294,8.693333 c 16.6232,-4.454202 33.5914,5.340808 38.0456,21.963986 4.4542,16.623168 -5.3427,33.591889 -21.9659,38.046039 -16.6231,4.45413 -33.5919,-5.34276 -38.046,-21.965896 -4.4542,-16.623149 5.3432,-33.589973 21.9663,-38.044129 z"
   id="path1026-3"
   inkscape:connector-curvature="0" /><path
   style="color:#000000;font-style:normal;font-variant:normal;font-weight:normal;font-stretch:normal;font-size:medium;line-height:normal;font-family:sans-serif;font-variant-ligatures:normal;font-variant-position:normal;font-variant-caps:normal;font-variant-numeric:normal;font-variant-alternates:normal;font-feature-settings:normal;text-indent:0;text-align:start;text-decoration:none;text-decoration-line:none;text-decoration-style:solid;text-decoration-color:#000000;letter-spacing:normal;word-spacing:normal;text-transform:none;writing-mode:lr-tb;direction:ltr;text-orientation:mixed;dominant-baseline:auto;baseline-shift:baseline;text-anchor:start;white-space:normal;shape-padding:0;clip-rule:nonzero;display:inline;overflow:visible;visibility:visible;opacity:0.97000002;isolation:auto;mix-blend-mode:normal;color-interpolation:sRGB;color-interpolation-filters:linearRGB;solid-color:#000000;solid-opacity:1;vector-effect:none;fill:#000000;fill-opacity:1;fill-rule:nonzero;stroke:none;stroke-width:9;stroke-linecap:round;stroke-linejoin:miter;stroke-miterlimit:4;stroke-dasharray:none;stroke-dashoffset:0;stroke-opacity:1;paint-order:fill markers stroke;color-rendering:auto;image-rendering:auto;shape-rendering:auto;text-rendering:auto;enable-background:accumulate"
   d="m 1156.2161,233.8018 c -21.3214,5.71308 -34.0429,27.74736 -28.3298,49.06872 5.713,21.32137 27.7473,34.04287 49.0687,28.32986 21.3214,-5.71303 34.0429,-27.74734 28.3298,-49.06874 -5.713,-21.32141 -27.7473,-34.04293 -49.0687,-28.32984 z m 2.3293,8.69334 c 16.6232,-4.4542 33.5919,5.3427 38.0461,21.96587 4.4542,16.62318 -5.3427,33.59189 -21.9659,38.04604 -16.6231,4.45412 -33.5918,-5.34276 -38.046,-21.9659 -4.4542,-16.62314 5.3427,-33.59185 21.9658,-38.04601 z"
   id="path1026-3-4"
   inkscape:connector-curvature="0" /><path
   style="color:#000000;font-style:normal;font-variant:normal;font-weight:normal;font-stretch:normal;font-size:medium;line-height:normal;font-family:sans-serif;font-variant-ligatures:normal;font-variant-position:normal;font-variant-caps:normal;font-variant-numeric:normal;font-variant-alternates:normal;font-feature-settings:normal;text-indent:0;text-align:start;text-decoration:none;text-decoration-line:none;text-decoration-style:solid;text-decoration-color:#000000;letter-spacing:normal;word-spacing:normal;text-transform:none;writing-mode:lr-tb;direction:ltr;text-orientation:mixed;dominant-baseline:auto;baseline-shift:baseline;text-anchor:start;white-space:normal;shape-padding:0;clip-rule:nonzero;display:inline;overflow:visible;visibility:visible;opacity:0.97000002;isolation:auto;mix-blend-mode:normal;color-interpolation:sRGB;color-interpolation-filters:linearRGB;solid-color:#000000;solid-opacity:1;vector-effect:none;fill:#000000;fill-opacity:1;fill-rule:nonzero;stroke:none;stroke-width:9;stroke-linecap:round;stroke-linejoin:miter;stroke-miterlimit:4;stroke-dasharray:none;stroke-dashoffset:0;stroke-opacity:1;paint-order:fill markers stroke;color-rendering:auto;image-rendering:auto;shape-rendering:auto;text-rendering:auto;enable-background:accumulate"
   d="m 1142.7963,136.70489 c -14.4476,3.87125 -23.0902,18.84064 -19.219,33.28819 3.8712,14.44753 18.8401,23.0882 33.2877,19.21704 14.4477,-3.87121 23.0907,-18.83871 19.2195,-33.28629 -3.8713,-14.4476 -18.8406,-23.0902 -33.2882,-19.21894 z m 2.3293,8.69333 c 9.7494,-2.61235 19.6532,3.10562 22.2655,12.85498 2.6124,9.74935 -3.1061,19.65126 -12.8555,22.26359 -9.7493,2.61228 -19.6526,-3.10376 -22.265,-12.85309 -2.6123,-9.74933 3.1058,-19.65314 12.855,-22.26548 z"
   id="path1026-3-6"
   inkscape:connector-curvature="0" /><path
   style="color:#000000;font-style:normal;font-variant:normal;font-weight:normal;font-stretch:normal;font-size:medium;line-height:normal;font-family:sans-serif;font-variant-ligatures:normal;font-variant-position:normal;font-variant-caps:normal;font-variant-numeric:normal;font-variant-alternates:normal;font-feature-settings:normal;text-indent:0;text-align:start;text-decoration:none;text-decoration-line:none;text-decoration-style:solid;text-decoration-color:#000000;letter-spacing:normal;word-spacing:normal;text-transform:none;writing-mode:lr-tb;direction:ltr;text-orientation:mixed;dominant-baseline:auto;baseline-shift:baseline;text-anchor:start;white-space:normal;shape-padding:0;clip-rule:nonzero;display:inline;overflow:visible;visibility:visible;opacity:0.97000002;isolation:auto;mix-blend-mode:normal;color-interpolation:sRGB;color-interpolation-filters:linearRGB;solid-color:#000000;solid-opacity:1;vector-effect:none;fill:#000000;fill-opacity:1;fill-rule:nonzero;stroke:none;stroke-width:8.89060688;stroke-linecap:round;stroke-linejoin:miter;stroke-miterlimit:4;stroke-dasharray:none;stroke-dashoffset:0;stroke-opacity:1;paint-order:fill markers stroke;color-rendering:auto;image-rendering:auto;shape-rendering:auto;text-rendering:auto;enable-background:accumulate"
   d="m 1318.9922,345.45898 h -4.4453 l -1314.0469,0 0,10.38477 1318.4922,0 z"
   id="rect1152-0"
   inkscape:connector-curvature="0" /><path
   style="color:#000000;font-style:normal;font-variant:normal;font-weight:normal;font-stretch:normal;font-size:medium;line-height:normal;font-family:sans-serif;font-variant-ligatures:normal;font-variant-position:normal;font-variant-caps:normal;font-variant-numeric:normal;font-variant-alternates:normal;font-feature-settings:normal;text-indent:0;text-align:start;text-decoration:none;text-decoration-line:none;text-decoration-style:solid;text-decoration-color:#000000;letter-spacing:normal;word-spacing:normal;text-transform:none;writing-mode:lr-tb;direction:ltr;text-orientation:mixed;dominant-baseline:auto;baseline-shift:baseline;text-anchor:start;white-space:normal;shape-padding:0;clip-rule:nonzero;display:inline;overflow:visible;visibility:visible;opacity:1;isolation:auto;mix-blend-mode:normal;color-interpolation:sRGB;color-interpolation-filters:linearRGB;solid-color:#000000;solid-opacity:1;vector-effect:none;fill:#000000;fill-opacity:1;fill-rule:nonzero;stroke:none;stroke-width:9;stroke-linecap:butt;stroke-linejoin:miter;stroke-miterlimit:4;stroke-dasharray:none;stroke-dashoffset:0;stroke-opacity:1;color-rendering:auto;image-rendering:auto;shape-rendering:auto;text-rendering:auto;enable-background:accumulate"
   d="m 1114.0625,111.49805 -6.9707,5.69336 24.7637,30.3125 6.9687,-5.69532 z"
   id="path1173"
   inkscape:connector-curvature="0" /><path
   style="color:#000000;font-style:normal;font-variant:normal;font-weight:normal;font-stretch:normal;font-size:medium;line-height:normal;font-family:sans-serif;font-variant-ligatures:normal;font-variant-position:normal;font-variant-caps:normal;font-variant-numeric:normal;font-variant-alternates:normal;font-feature-settings:normal;text-indent:0;text-align:start;text-decoration:none;text-decoration-line:none;text-decoration-style:solid;text-decoration-color:#000000;letter-spacing:normal;word-spacing:normal;text-transform:none;writing-mode:lr-tb;direction:ltr;text-orientation:mixed;dominant-baseline:auto;baseline-shift:baseline;text-anchor:start;white-space:normal;shape-padding:0;clip-rule:nonzero;display:inline;overflow:visible;visibility:visible;opacity:1;isolation:auto;mix-blend-mode:normal;color-interpolation:sRGB;color-interpolation-filters:linearRGB;solid-color:#000000;solid-opacity:1;vector-effect:none;fill:#000000;fill-opacity:1;fill-rule:nonzero;stroke:none;stroke-width:9;stroke-linecap:butt;stroke-linejoin:miter;stroke-miterlimit:4;stroke-dasharray:none;stroke-dashoffset:0;stroke-opacity:1;color-rendering:auto;image-rendering:auto;shape-rendering:auto;text-rendering:auto;enable-background:accumulate"
   d="m 1155.5859,185.39453 -8.9004,1.34766 7.6856,50.80469 8.8984,-1.34766 z"
   id="path1179"
   inkscape:connector-curvature="0" /><path
   style="color:#000000;font-style:normal;font-variant:normal;font-weight:normal;font-stretch:normal;font-size:medium;line-height:normal;font-family:sans-serif;font-variant-ligatures:normal;font-variant-position:normal;font-variant-caps:normal;font-variant-numeric:normal;font-variant-alternates:normal;font-feature-settings:normal;text-indent:0;text-align:start;text-decoration:none;text-decoration-line:none;text-decoration-style:solid;text-decoration-color:#000000;letter-spacing:normal;word-spacing:normal;text-transform:none;writing-mode:lr-tb;direction:ltr;text-orientation:mixed;dominant-baseline:auto;baseline-shift:baseline;text-anchor:start;white-space:normal;shape-padding:0;clip-rule:nonzero;display:inline;overflow:visible;visibility:visible;opacity:1;isolation:auto;mix-blend-mode:normal;color-interpolation:sRGB;color-interpolation-filters:linearRGB;solid-color:#000000;solid-opacity:1;vector-effect:none;fill:#000000;fill-opacity:1;fill-rule:nonzero;stroke:none;stroke-width:9;stroke-linecap:butt;stroke-linejoin:miter;stroke-miterlimit:4;stroke-dasharray:none;stroke-dashoffset:0;stroke-opacity:1;color-rendering:auto;image-rendering:auto;shape-rendering:auto;text-rendering:auto;enable-background:accumulate"
   d="m 1172.9883,161.95898 -1.0117,8.94141 45.2539,5.12305 1.0117,-8.94141 z"
   id="path1181"
   inkscape:connector-curvature="0" /><path
   style="color:#000000;font-style:normal;font-variant:normal;font-weight:normal;font-stretch:normal;font-size:medium;line-height:normal;font-family:sans-serif;font-variant-ligatures:normal;font-variant-position:normal;font-variant-caps:normal;font-variant-numeric:normal;font-variant-alternates:normal;font-feature-settings:normal;text-indent:0;text-align:start;text-decoration:none;text-decoration-line:none;text-decoration-style:solid;text-decoration-color:#000000;letter-spacing:normal;word-spacing:normal;text-transform:none;writing-mode:lr-tb;direction:ltr;text-orientation:mixed;dominant-baseline:auto;baseline-shift:baseline;text-anchor:start;white-space:normal;shape-padding:0;clip-rule:nonzero;display:inline;overflow:visible;visibility:visible;opacity:0.97000002;isolation:auto;mix-blend-mode:normal;color-interpolation:sRGB;color-interpolation-filters:linearRGB;solid-color:#000000;solid-opacity:1;vector-effect:none;fill:#000000;fill-opacity:1;fill-rule:nonzero;stroke:none;stroke-width:6.93085814;stroke-linecap:round;stroke-linejoin:miter;stroke-miterlimit:4;stroke-dasharray:none;stroke-dashoffset:0;stroke-opacity:1;paint-order:fill markers stroke;color-rendering:auto;image-rendering:auto;shape-rendering:auto;text-rendering:auto;enable-background:accumulate"
   d="M 52.658203,0.89257812 V 4.359375 408.19531 H 62.5625 V 0.89257812 Z"
   id="rect1152-0-3"
   inkscape:connector-curvature="0" /></svg>