<?xml version="1.0" encoding="UTF-8" standalone="no"?>
<svg
   xmlns:dc="http://purl.org/dc/elements/1.1/"
   xmlns:cc="http://creativecommons.org/ns#"
   xmlns:rdf="http://www.w3.org/1999/02/22-rdf-syntax-ns#"
   xmlns:svg="http://www.w3.org/2000/svg"
   xmlns="http://www.w3.org/2000/svg"
   xmlns:sodipodi="http://sodipodi.sourceforge.net/DTD/sodipodi-0.dtd"
   xmlns:inkscape="http://www.inkscape.org/namespaces/inkscape"
   id="Layer_1"
   version="1.1"
   viewBox="0 0 1649.7538 280.00001"
   xml:space="preserve"
   sodipodi:docname="SchoolID-Logo.svg"
   width="1649.7538"
   height="280"
   inkscape:version="0.92.4 (5da689c313, 2019-01-14)"><metadata
     id="metadata847"><rdf:RDF><cc:Work
         rdf:about=""><dc:format>image/svg+xml</dc:format><dc:type
           rdf:resource="http://purl.org/dc/dcmitype/StillImage" /><dc:title></dc:title></cc:Work></rdf:RDF></metadata><defs
     id="defs845" /><sodipodi:namedview
     pagecolor="#ffffff"
     bordercolor="#666666"
     borderopacity="1"
     objecttolerance="10"
     gridtolerance="10"
     guidetolerance="10"
     inkscape:pageopacity="0"
     inkscape:pageshadow="2"
     inkscape:window-width="2560"
     inkscape:window-height="1017"
     id="namedview843"
     showgrid="false"
     fit-margin-top="0"
     fit-margin-left="0"
     fit-margin-right="0"
     fit-margin-bottom="0"
     inkscape:zoom="0.58695388"
     inkscape:cx="612.00138"
     inkscape:cy="-51.335893"
     inkscape:window-x="-8"
     inkscape:window-y="-8"
     inkscape:window-maximized="1"
     inkscape:current-layer="Layer_1" /><ellipse
     cx="48.526237"
     cy="231.14311"
     id="XMLID_731_"
     rx="1.5"
     ry="0" /><g
     id="XMLID_578_"
     transform="matrix(0.56689342,0,0,0.56,-45.124716,-3.36)"><path
       d="M 401.4,6 H 110.6 c -17.1,0 -31,13.9 -31,31 v 438 c 0,17.1 13.9,31 31,31 h 290.8 c 17.1,0 31,-13.9 31,-31 V 37 c 0,-17.1 -13.9,-31 -31,-31 z m 21.2,469 c 0,11.7 -9.5,21.2 -21.2,21.2 H 110.6 C 98.9,496.2 89.4,486.7 89.4,475 V 37 c 0,-11.7 9.5,-21.2 21.2,-21.2 h 290.8 c 11.7,0 21.2,9.5 21.2,21.2 z"
       id="XMLID_585_"
       inkscape:connector-curvature="0" /><path
       d="m 197.3,55 h 117.5 c 7.9,0 14.3,-6.4 14.3,-14.3 0,-7.9 -6.4,-14.3 -14.3,-14.3 H 197.3 c -7.9,0 -14.3,6.4 -14.3,14.3 -0.1,7.8 6.4,14.3 14.3,14.3 z m 0,-18.9 h 117.5 c 2.5,0 4.5,2 4.5,4.5 0,2.5 -2,4.5 -4.5,4.5 H 197.3 c -2.5,0 -4.5,-2 -4.5,-4.5 -0.1,-2.5 2,-4.5 4.5,-4.5 z"
       id="XMLID_602_"
       inkscape:connector-curvature="0" /><path
       d="m 182.2,256.4 h 147.6 c 5.2,0 9.4,-4.2 9.4,-9.4 0,-29.1 -14.8,-55.5 -39.6,-70.8 -4.3,-2.6 -10,-1.3 -12.7,2.9 -6.9,10.5 -18.4,16.8 -30.9,16.8 -12.5,0 -24,-6.3 -30.9,-16.8 -2.8,-4.2 -8.5,-5.6 -12.7,-2.9 -24.8,15.3 -39.6,41.8 -39.6,70.9 0,5.1 4.2,9.3 9.4,9.3 z m 34.9,-71.6 c 8.7,13.1 23.2,20.9 38.9,20.9 15.7,0 30.2,-7.8 38.9,-20.9 21.5,13.4 34.3,36.5 34.5,61.8 H 182.6 c 0.2,-25.3 13,-48.3 34.5,-61.8 z"
       id="XMLID_605_"
       inkscape:connector-curvature="0" /><path
       d="m 256,188 c 22.4,0 40.7,-18.3 40.7,-40.7 0,-22.4 -18.3,-40.7 -40.7,-40.7 -22.4,0 -40.7,18.3 -40.7,40.7 0,22.5 18.3,40.7 40.7,40.7 z m 0,-71.6 c 17,0 30.9,13.9 30.9,30.9 0,17 -13.9,30.9 -30.9,30.9 -17,0 -30.9,-13.9 -30.9,-30.9 0,-17 13.9,-30.9 30.9,-30.9 z"
       id="XMLID_608_"
       inkscape:connector-curvature="0" /><path
       d="m 168.5,284.1 h 175 c 7.2,0 13,-6.4 13,-14.4 V 103 c 0,-7.9 -5.9,-14.4 -13,-14.4 h -175 c -7.2,0 -13,6.4 -13,14.4 v 166.8 c -0.1,7.9 5.8,14.3 13,14.3 z M 165.2,103 c 0,-2.5 1.5,-4.6 3.2,-4.6 h 175 c 1.8,0 3.2,2.1 3.2,4.6 v 166.8 c 0,2.5 -1.5,4.6 -3.2,4.6 h -175 c -1.8,0 -3.2,-2.1 -3.2,-4.6 z"
       id="XMLID_737_"
       inkscape:connector-curvature="0" /><path
       d="m 352,329.8 c 0,-2.7 -2.2,-4.9 -4.9,-4.9 H 164.9 c -2.7,0 -4.9,2.2 -4.9,4.9 0,2.7 2.2,4.9 4.9,4.9 h 182.2 c 2.7,0 4.9,-2.2 4.9,-4.9 z"
       id="XMLID_739_"
       inkscape:connector-curvature="0" /><path
       d="M 361.3,389.4 H 150.7 c -2.7,0 -4.9,2.2 -4.9,4.9 0,2.7 2.2,4.9 4.9,4.9 h 210.6 c 2.7,0 4.9,-2.2 4.9,-4.9 0,-2.8 -2.2,-4.9 -4.9,-4.9 z"
       id="XMLID_740_"
       inkscape:connector-curvature="0" /><path
       d="m 190.9,357.3 c -2.7,0 -4.9,2.2 -4.9,4.9 0,2.7 2.2,4.9 4.9,4.9 h 130.3 c 2.7,0 4.9,-2.2 4.9,-4.9 0,-2.7 -2.2,-4.9 -4.9,-4.9 z"
       id="XMLID_741_"
       inkscape:connector-curvature="0" /></g><g
     aria-label="School ID"
     transform="matrix(25.230832,0,0,25.137691,-11419.353,-477.15612)"
     style="font-style:normal;font-variant:normal;font-weight:normal;font-stretch:normal;font-size:15.77712822px;line-height:1.25;font-family:Planer;-inkscape-font-specification:'Planer, Normal';font-variant-ligatures:normal;font-variant-caps:normal;font-variant-numeric:normal;font-feature-settings:normal;text-align:start;letter-spacing:0px;word-spacing:0px;writing-mode:lr-tb;text-anchor:start;fill:#000000;fill-opacity:1;stroke:none;stroke-opacity:1"
     id="flowRoot849"><path
       d="m 462.49393,29.615485 q 0,-0.173548 0.11044,-0.283988 0.12622,-0.126217 0.29977,-0.126217 h 3.06076 q 1.23062,0 1.87748,-0.567977 0.66264,-0.567977 0.66264,-1.893255 0,-0.520646 -0.15777,-0.851965 -0.142,-0.347097 -0.45754,-0.5522 -0.31554,-0.22088 -0.80463,-0.347097 -0.48909,-0.141994 -1.15173,-0.268211 -0.70997,-0.141994 -1.34106,-0.283988 -0.61531,-0.157771 -1.08862,-0.457537 -0.47331,-0.299765 -0.74152,-0.82041 -0.26822,-0.520646 -0.26822,-1.404165 0,-0.773079 0.23666,-1.293724 0.23666,-0.536423 0.67842,-0.867742 0.45753,-0.33132 1.08862,-0.473314 0.64686,-0.141994 1.4515,-0.141994 h 2.66633 q 0.2051,0 0.33132,0.126217 0.12622,0.126217 0.12622,0.283988 0,0.173548 -0.12622,0.299765 -0.12622,0.126217 -0.29977,0.126217 h -2.69788 q -1.23062,0 -1.94059,0.425983 -0.69419,0.425982 -0.69419,1.514604 0,0.615308 0.18932,0.993959 0.2051,0.362874 0.56798,0.583754 0.36287,0.22088 0.86774,0.347097 0.52064,0.11044 1.15173,0.22088 0.77308,0.141994 1.37261,0.331319 0.59953,0.173549 1.00974,0.489091 0.4102,0.315543 0.63108,0.804634 0.22088,0.489091 0.22088,1.214839 0,1.767038 -0.85196,2.52434 -0.85197,0.757302 -2.50857,0.757302 h -3.06076 q -0.17355,0 -0.29977,-0.126217 -0.11044,-0.126217 -0.11044,-0.283988 z"
       style="font-style:normal;font-variant:normal;font-weight:normal;font-stretch:normal;font-size:15.77712822px;font-family:Planer;-inkscape-font-specification:'Planer, Normal';font-variant-ligatures:normal;font-variant-caps:normal;font-variant-numeric:normal;font-feature-settings:normal;text-align:start;writing-mode:lr-tb;text-anchor:start;fill:#000000;stroke:none;stroke-opacity:1"
       id="path2362"
       inkscape:connector-curvature="0" /><path
       d="m 475.7657,21.995132 q 0.17355,0 0.28399,0.11044 0.11044,0.11044 0.11044,0.283988 0,0.394428 -0.39443,0.394428 h -1.78281 q -1.18329,0 -1.71971,0.631086 -0.53642,0.631085 -0.53642,1.798592 v 1.498827 q 0,1.230616 0.5522,1.877479 0.56797,0.646862 1.70393,0.646862 h 1.78281 q 0.17355,0 0.28399,0.11044 0.11044,0.11044 0.11044,0.283988 0,0.173549 -0.11044,0.283988 -0.11044,0.11044 -0.28399,0.11044 h -1.78281 q -1.56194,0 -2.31924,-0.804633 -0.7573,-0.804634 -0.7573,-2.524341 v -1.48305 q 0,-1.59349 0.74152,-2.398123 0.75731,-0.820411 2.33502,-0.820411 z"
       style="font-style:normal;font-variant:normal;font-weight:normal;font-stretch:normal;font-size:15.77712822px;font-family:Planer;-inkscape-font-specification:'Planer, Normal';font-variant-ligatures:normal;font-variant-caps:normal;font-variant-numeric:normal;font-feature-settings:normal;text-align:start;writing-mode:lr-tb;text-anchor:start;fill:#000000;stroke:none;stroke-opacity:1"
       id="path2364"
       inkscape:connector-curvature="0" /><path
       d="m 477.74721,19.5339 q 0,-0.189325 0.11044,-0.299765 0.12622,-0.126217 0.29977,-0.126217 0.17355,0 0.29976,0.126217 0.12622,0.11044 0.12622,0.299765 v 2.461232 h 2.65056 q 0.48909,0 0.93085,0.173548 0.45753,0.173549 0.80463,0.520646 0.3471,0.331319 0.53642,0.82041 0.20511,0.489091 0.20511,1.120176 v 4.985573 q 0,0.173548 -0.12622,0.299765 -0.12622,0.11044 -0.29977,0.11044 -0.17354,0 -0.29976,-0.11044 -0.11044,-0.126217 -0.11044,-0.299765 v -4.954018 q 0,-0.425983 -0.142,-0.77308 -0.12621,-0.347096 -0.34709,-0.583753 -0.22088,-0.252434 -0.52065,-0.378651 -0.29976,-0.141995 -0.63108,-0.141995 h -2.65056 v 6.831497 q 0,0.173548 -0.12622,0.299765 -0.12621,0.11044 -0.29976,0.11044 -0.17355,0 -0.29977,-0.11044 -0.11044,-0.126217 -0.11044,-0.299765 z"
       style="font-style:normal;font-variant:normal;font-weight:normal;font-stretch:normal;font-size:15.77712822px;font-family:Planer;-inkscape-font-specification:'Planer, Normal';font-variant-ligatures:normal;font-variant-caps:normal;font-variant-numeric:normal;font-feature-settings:normal;text-align:start;writing-mode:lr-tb;text-anchor:start;fill:#000000;stroke:none;stroke-opacity:1"
       id="path2366"
       inkscape:connector-curvature="0" /><path
       d="m 487.93159,30.120353 q -0.56797,0 -1.05706,-0.189325 -0.47332,-0.205103 -0.83619,-0.567977 -0.3471,-0.362874 -0.5522,-0.867742 -0.18933,-0.520645 -0.18933,-1.15173 v -2.398124 q 0,-0.631085 0.18933,-1.167507 0.2051,-0.536423 0.5522,-0.930851 0.3471,-0.394428 0.83619,-0.615308 0.48909,-0.22088 1.05706,-0.22088 h 0.96241 q 0.56798,0 1.04129,0.22088 0.48909,0.22088 0.83619,0.615308 0.34709,0.394428 0.53642,0.930851 0.2051,0.536422 0.2051,1.167507 v 2.398124 q 0,0.631085 -0.2051,1.15173 -0.18933,0.504868 -0.5522,0.867742 -0.3471,0.362874 -0.83619,0.567977 -0.47331,0.189325 -1.02551,0.189325 z m 0.96241,-0.788856 q 0.37865,0 0.70997,-0.157772 0.33132,-0.157771 0.56798,-0.425982 0.23665,-0.268211 0.37865,-0.631085 0.14199,-0.362874 0.14199,-0.773079 v -2.398124 q 0,-0.410205 -0.14199,-0.788856 -0.142,-0.394429 -0.37865,-0.694194 -0.23666,-0.299765 -0.56798,-0.473314 -0.33132,-0.189325 -0.70997,-0.189325 h -0.96241 q -0.37865,0 -0.70997,0.189325 -0.33132,0.173549 -0.58375,0.473314 -0.23666,0.299765 -0.37865,0.694194 -0.12622,0.378651 -0.12622,0.788856 v 2.398124 q 0,0.410205 0.12622,0.773079 0.14199,0.362874 0.37865,0.631085 0.25243,0.268211 0.58375,0.425982 0.33132,0.157772 0.70997,0.157772 z"
       style="font-style:normal;font-variant:normal;font-weight:normal;font-stretch:normal;font-size:15.77712822px;font-family:Planer;-inkscape-font-specification:'Planer, Normal';font-variant-ligatures:normal;font-variant-caps:normal;font-variant-numeric:normal;font-feature-settings:normal;text-align:start;writing-mode:lr-tb;text-anchor:start;fill:#000000;stroke:none;stroke-opacity:1"
       id="path2368"
       inkscape:connector-curvature="0" /><path
       d="m 495.72772,30.120353 q -0.56798,0 -1.05707,-0.189325 -0.47332,-0.205103 -0.83619,-0.567977 -0.3471,-0.362874 -0.5522,-0.867742 -0.18932,-0.520645 -0.18932,-1.15173 v -2.398124 q 0,-0.631085 0.18932,-1.167507 0.2051,-0.536423 0.5522,-0.930851 0.3471,-0.394428 0.83619,-0.615308 0.48909,-0.22088 1.05707,-0.22088 h 0.9624 q 0.56798,0 1.04129,0.22088 0.48909,0.22088 0.83619,0.615308 0.3471,0.394428 0.53642,0.930851 0.2051,0.536422 0.2051,1.167507 v 2.398124 q 0,0.631085 -0.2051,1.15173 -0.18932,0.504868 -0.5522,0.867742 -0.34709,0.362874 -0.83619,0.567977 -0.47331,0.189325 -1.02551,0.189325 z m 0.9624,-0.788856 q 0.37865,0 0.70997,-0.157772 0.33132,-0.157771 0.56798,-0.425982 0.23666,-0.268211 0.37865,-0.631085 0.14199,-0.362874 0.14199,-0.773079 v -2.398124 q 0,-0.410205 -0.14199,-0.788856 -0.14199,-0.394429 -0.37865,-0.694194 -0.23666,-0.299765 -0.56798,-0.473314 -0.33132,-0.189325 -0.70997,-0.189325 h -0.9624 q -0.37866,0 -0.70997,0.189325 -0.33132,0.173549 -0.58376,0.473314 -0.23666,0.299765 -0.37865,0.694194 -0.12622,0.378651 -0.12622,0.788856 v 2.398124 q 0,0.410205 0.12622,0.773079 0.14199,0.362874 0.37865,0.631085 0.25244,0.268211 0.58376,0.425982 0.33131,0.157772 0.70997,0.157772 z"
       style="font-style:normal;font-variant:normal;font-weight:normal;font-stretch:normal;font-size:15.77712822px;font-family:Planer;-inkscape-font-specification:'Planer, Normal';font-variant-ligatures:normal;font-variant-caps:normal;font-variant-numeric:normal;font-feature-settings:normal;text-align:start;writing-mode:lr-tb;text-anchor:start;fill:#000000;stroke:none;stroke-opacity:1"
       id="path2370"
       inkscape:connector-curvature="0" /><path
       d="m 500.88905,19.5339 q 0,-0.189325 0.11044,-0.299765 0.12622,-0.126217 0.31555,-0.126217 0.17354,0 0.29976,0.126217 0.12622,0.11044 0.12622,0.331319 v 10.0027 q 0,0.205102 -0.12622,0.331319 -0.12622,0.126217 -0.29976,0.126217 -0.18933,0 -0.31555,-0.126217 -0.11044,-0.126217 -0.11044,-0.299765 z"
       style="font-style:normal;font-variant:normal;font-weight:normal;font-stretch:normal;font-size:15.77712822px;font-family:Planer;-inkscape-font-specification:'Planer, Normal';font-variant-ligatures:normal;font-variant-caps:normal;font-variant-numeric:normal;font-feature-settings:normal;text-align:start;writing-mode:lr-tb;text-anchor:start;fill:#000000;stroke:none;stroke-opacity:1"
       id="path2372"
       inkscape:connector-curvature="0" /><path
       d="m 508.06888,19.407683 q 0,-0.173548 0.11044,-0.299765 0.12622,-0.126217 0.31554,-0.126217 0.18933,0 0.29977,0.126217 0.12622,0.126217 0.12622,0.331319 v 10.128917 q 0,0.205102 -0.12622,0.331319 -0.11044,0.126217 -0.29977,0.126217 -0.18932,0 -0.31554,-0.126217 -0.11044,-0.126217 -0.11044,-0.299765 z"
       style="font-style:normal;font-variant:normal;font-weight:normal;font-stretch:normal;font-size:15.77712822px;font-family:Planer;-inkscape-font-specification:'Planer, Normal';font-variant-ligatures:normal;font-variant-caps:normal;font-variant-numeric:normal;font-feature-settings:normal;text-align:start;writing-mode:lr-tb;text-anchor:start;fill:#000000;stroke:none;stroke-opacity:1"
       id="path2374"
       inkscape:connector-curvature="0" /><path
       d="m 517.11386,22.799766 q 0,-1.59349 -0.7573,-2.287684 -0.75731,-0.694194 -2.08258,-0.694194 h -2.91877 v 9.387392 h 2.91877 q 0.69419,0 1.21483,-0.22088 0.53643,-0.22088 0.8993,-0.599531 0.36288,-0.394428 0.53642,-0.915073 0.18933,-0.536423 0.18933,-1.167508 z m -6.61062,-3.108095 q 0,-0.315542 0.18933,-0.504868 0.2051,-0.205102 0.52064,-0.205102 h 3.06077 q 0.86774,0 1.54615,0.205102 0.6942,0.205103 1.16751,0.66264 0.48909,0.457536 0.74153,1.183284 0.25243,0.725748 0.25243,1.767039 v 3.502522 q 0,0.836188 -0.25243,1.530381 -0.23666,0.678417 -0.70997,1.167508 -0.47332,0.489091 -1.16751,0.757302 -0.67842,0.268211 -1.57771,0.268211 h -3.06077 q -0.31554,0 -0.52064,-0.189325 -0.18933,-0.205103 -0.18933,-0.520645 z"
       style="font-style:normal;font-variant:normal;font-weight:normal;font-stretch:normal;font-size:15.77712822px;font-family:Planer;-inkscape-font-specification:'Planer, Normal';font-variant-ligatures:normal;font-variant-caps:normal;font-variant-numeric:normal;font-feature-settings:normal;text-align:start;writing-mode:lr-tb;text-anchor:start;fill:#000000;stroke:none;stroke-opacity:1"
       id="path2376"
       inkscape:connector-curvature="0" /></g></svg>